<?xml version="1.0" encoding="utf-8"?>
<!-- Generator: Adobe Illustrator 22.1.0, SVG Export Plug-In . SVG Version: 6.00 Build 0)  -->
<svg version="1.1" xmlns="http://www.w3.org/2000/svg" xmlns:xlink="http://www.w3.org/1999/xlink" x="0px" y="0px"
	 viewBox="0 0 838.7 235.5" style="enable-background:new 0 0 838.7 235.5;" xml:space="preserve">
<style type="text/css">
	.st0{display:none;}
	.st1{fill:#FFD82E;}
	.st2{fill:#3500D3;}
</style>
<g id="Background" class="st0">
</g>
<g id="Object">
	<g>
		<g>
			<g>
				<path class="st1" d="M36.7,84.1c0.6-0.2,1.1-0.3,1.7-0.5c-0.4-0.1-0.9-0.1-1.4-0.2c-0.4,0.2-0.7,0.3-1,0.5
					C36.2,84,36.4,84,36.7,84.1z"/>
			</g>
			<g>
				<path class="st1" d="M15.4,89c-1.9-0.5-3.6-1-6.3-0.9c-0.6,0.3-1,0.4-1.1,0.5c1,0.3,2.3,0.7,3.6,1.1
					C14.2,90.5,15.6,89.8,15.4,89z"/>
			</g>
			<g>
				<path class="st1" d="M8,88.6c-0.9-0.3-1.5-0.5-1.5-0.5c0.3,0.2,0.7,0.4,1,0.6c0.3,0,0.3-0.1,0.3-0.1S7.8,88.7,8,88.6z"/>
			</g>
			<g>
				<path class="st1" d="M506.7,76.8c35.3,1.4,70.8,2.3,106.2,2.9c1.2,0,2.2-0.3,2.2-0.7c0.1-0.3-0.9-0.7-2-0.7
					c-35.5-0.7-70.8-1.7-106.1-3c-1.2,0-2.2,0.3-2.3,0.6C504.8,76.4,505.6,76.8,506.7,76.8z"/>
			</g>
			<g>
				<path class="st1" d="M771.3,116.2c-0.8,0.3-0.8,0.7,0.1,1c0.7,0.2,2.1,0.3,2.9,0c0.7-0.3,0.7-0.8-0.1-1
					C773.4,115.9,772,116,771.3,116.2z"/>
			</g>
			<g>
				<path class="st1" d="M793.3,133.3c-25.6-1.1-51.3-2.1-77-3c1.8-0.3,3.6-0.7,5.4-1c1.8-0.1,3.6-0.3,5.4-0.4
					c16.6-0.1,33.1-0.3,49.7-0.7c6.2,0.1,11.3-1.6,11.7-3.7c0.1-2.1-4.5-3.8-10.5-4c1-0.1,1.9-0.3,2.9-0.4c1-0.1,1.7-0.5,1.4-0.8
					c-0.4-0.4-1.6-0.6-2.6-0.5c-3.5,0.5-6.9,1-10.4,1.5c-31.6-0.8-63.2-0.5-94.8-0.1c34-2.5,68.5-4.2,103.2-4.9
					c-0.7,0.3-0.8,0.7,0.1,1c0.7,0.2,2.2,0.2,2.9,0c0.8-0.3,0.7-0.8-0.1-1c0,0,0,0-0.1,0c18.6-0.3,37.3-0.4,56.1-0.1
					c1.1,0,2-0.3,2-0.7c0-0.4-1-0.7-2.2-0.7c-62.1-1-123.7,1.8-183.8,6.7c-3.3,0-6.6,0.1-9.9,0.1c0,0,0,0,0,0
					c-1-1.6-3.2-3.1-6.2-4.2c21.3-0.7,42.5-1.5,63.7-2.5c17.7,0.1,35.4,0.3,53.2,0.4c2.6,0,4.7-0.7,4.8-1.6c0.1-0.9-2-1.6-4.7-1.6
					c-4.3-0.1-8.7-0.1-13-0.1c3.6-1.1,5.9-2.7,6.2-4.5c0.2-1.7-1.6-3.3-4.6-4.5c19.2-1.6,38.2-3.4,56.7-5.8c1.1-0.1,1.7-0.5,1.3-0.9
					c-0.4-0.4-1.5-0.6-2.6-0.4c-27,1-53.6,2.6-80.3,3.8c-21.1-2.1-41.7-4.4-64.5-5.2c-33.2-1.1-64.3,1.1-95.5,3.3
					c-11.2-0.6-22.3-1-33.4-1.2c1.6-0.8,2.5-1.8,2.5-2.8c0-0.3-0.1-0.5-0.2-0.8c9.7,0.1,19.5,0.2,29.5,0.3
					c92.3,0.9,179-6.3,267.4-12.3c5.6-0.2,9.7-2,9.1-3.9c-0.7-1.9-5.9-3.3-11.5-3.1c-42.4,0-81.4,3.4-124.2,6.7
					c-30.5,2.4-57.3,4.1-88,5.7c-35.9,1.9-69.3,1.5-104.4,1.4c-3.5-0.3-6.9-0.5-10.4-0.4c-3.5,0.1-7.1,0.2-10.6,0.3
					c-27.5-0.3-54.5-1.5-81.4-2.8c32.1-1.2,64.2-2.6,95.9-5.2c2.3-0.1,3.8-0.8,3.5-1.6c-0.4-0.8-2.4-1.3-4.7-1.2
					c-44.1,1.6-88.3,2.3-132.5,3.1c-12.1-6.7-37.6-10.6-60.4-10.8c-8.4-0.1-16.2,0.6-24.1,1.7c3.7,0.3,7.3,0.5,10.9,0.8
					c-10.8,0.2-20.1,2-29.2,3.7c-0.8-0.1-1.6-0.2-2.4-0.2c-21.2-3.7-46-3-68.9-4.6c0.5,0.9,1.1,1.7,1.6,2.6
					c-4.2-0.7-6.7-2.2-11.4-2.7c1.3,0.6,2.5,1.2,3.8,1.9c-0.1,0-0.2,0-0.3,0c-5-1.4-11-2-17.2-2.1c-14.1-4-31.3-6.2-49.4-7.3
					c-2.3-1-5.8-1.7-9.9-1.9c-1.7-0.3-3.7-0.5-5-1c-11.2-4.2-24.9-7-40-9.1c2.9,0.8,5.9,1.6,8.9,2.4c-4.4-0.7-8.7-1.3-13.5-1.4
					c0.5,0.5,1.2,1,1.7,1.5c-15-3.6-35.6-2.3-46,2.8C2.3,60.2,6,67.2,21,70.8l2.2,0.6C15.5,72.1,8.8,73.8,5,76.8
					c-2,1.6-0.3,3.7,0.2,5.6c-0.6,2.7,5.4,5.1,13.5,5.3c2.2,0.1,4.3-0.1,6.2-0.3c9.3,1,18.8,1.8,27.8,3c1.8,0.3,4,0,4.9-0.6
					c0.8-0.6,0-1.4-1.8-1.7c-6.5-1.3-12.8-2.6-19.1-4c-0.5,0.2-1,0.3-1.6,0.5c0.2-0.2,0.5-0.4,0.8-0.6c-0.6-0.1-1.1-0.3-1.7-0.4
					c0.4-0.1,0.9-0.3,1.3-0.4c0.5,0.1,0.9,0.1,1.4,0.2c0.8-0.4,1.7-0.7,2.7-0.9c11.3,0.9,22.4,2,32.9,3.8c0.6,0.1-0.4,1.3,0.7,1.8
					c0.6,0.2,1.1,0.4,1.8,0.6c-1.9-0.3-3.9-0.5-6-0.7c-8.1,1.7-11.1,2.4-13.2,2.8c0,0,0,0,0,0c0,0,0,0-0.6,0.2
					c-1,0.2-1.8,0.4-3.1,0.7c0,0,0,0,0,0.1c-0.2,0.1-0.5,0.1-0.8,0.2c-1.2-0.1-2.4-0.2-3.6-0.2c-1.4-0.1-2.7,0.1-3.3,0.5
					c-0.5-0.3-1-0.6-1.6-0.9c-6.9-0.6-6.9-0.6-14-1.1c0,0,0,0.3,0.2,0.7c-0.3,0-2.6,0.4-5.4,0.2c-2.6,0.1-2.6,0.1-9.3-0.5
					c0,0,0,0,3.2,1.2c0,0,0,0-2.8-0.9c0,0,0,0,0.7,1.4c0,0,0,0-1.3-1.5c0,0,0,0-1.2,1.1c0,0,0,0-5.5-3.3c-0.4,0.1-1.5,0.2-4,0.7
					c0,0-0.7,0.3-1.2,0.7c-0.1,0.4-0.1,0.4-2.3,1.8c0,0,0,0.5,0.2,1c0.7,0.5,0.7,0.5,0.8,1.7c0,0,0.8,0.5,1.9,0.9
					c1.1,0.2,1.3,0.3,5.3,1.1c-0.3,0.2-0.7,0.4-1,0.7c-0.8,2.4-0.8,2.4,4.2,7.9c0,0,2.7,1.5,7.2,2.6c5.2,0.5,5.2,0.5,11.1,1.1
					c0,0,1.3,0.2,3.5,0.5c1.7,0.9,2,1.1,3.3,1.9c0,0,0,0,0,0c-1.1,0.1-2.3,0.2-3.2,0.5c-2.7,0.8-3.1,2.1-0.8,3
					c-3,3.7-1.2,7,2.6,10.1c-1.1,1.2-1.7,2.5-1.5,3.8c-4.4,3.1-7.1,6.4-8.3,10l-0.5,3.1c1.3,2.6,5,5,10.4,6.9l1.7,0.7l-1.6,2.5
					c7,6.8,20.9,12.2,29.4,18.7l6.4,3.4c4.7,2.8,12.1,4.8,20.8,5.7l9.2,1c1.9,0,3.9,0.1,5.8,0.1c-9.8,3.2-15.2,7.8-13.4,12.7
					c3.1,8.1,24.9,13.8,48.7,12.7c63.5-0.3,124.8-0.9,189.7-4.2c48-2.5,91.6-5.8,138.7-5.8c45-3.5,88.4-8,132.4-13.5
					c36.9-4.5,65.2-13.6,97.8-20.5c0.9-0.2,1-0.6,0.5-1c-0.8-0.3-2.1-0.4-2.9-0.1c-51.8,6-104,11.2-159.6,12.5
					c-6.4,0.1-12.6,0.2-18.8,0.1c-0.7-0.1-1.4-0.2-2.3-0.2c-5.6-0.4-11.3-0.7-16.9-1.1c2,0,3.9,0,5.9-0.1c3.9,0.1,7.2-1,7.5-2.4
					c0-0.6-0.5-1.1-1.4-1.5c14.4-1.4,28.6-3.3,42.6-5.3c4.2-0.1,8.1-0.6,11.4-1.4c16.3,1,32.6,1.7,49,2.7l4.1,0.4
					c5.4,0.3,10.6-0.5,13.1-2.1c0.8-0.5,1.3-1,1.6-1.5c37.3-2.8,75.1-5,110.3-10.3c1.8-0.3,2.7-0.8,2.4-1.5c0.7,0.2,1.5,0.2,2.3,0
					c4.2-1.1,8.9-1.7,13.9-2.3c1.1-0.2,1.7-0.6,1.2-0.9c-0.5-0.4-1.7-0.6-2.7-0.4c-5.1,0.6-10,1.4-14.6,2.4
					c-0.5,0.1-0.8,0.3-0.9,0.5c-1-0.4-2.6-0.6-4.2-0.4c-36.4,1.8-71.6,5.8-108.3,6.7c18-2.4,36.3-4.1,55.7-6
					c23.3-2.2,44.8-5.4,68.3-6.6c1.2,0,2-0.4,1.9-0.8c-0.2-0.4-1.2-0.7-2.4-0.6c-48.2,1.9-90.4,11.1-140.2,11.1c-2,0-3.9,0-5.8-0.1
					c15.4-3.2,30.4-6.5,45.5-9.8c45.8-1.4,91.4-3.4,136.4-6.4c2.2,0,4-0.7,3.9-1.4C797.4,133.9,795.5,133.3,793.3,133.3z M27.1,99.3
					c0.6,0.2,1.1,0.4,1.8,0.9C28.9,100.2,28.9,100.2,27.1,99.3z M138,97.7c-9.1-0.6-18.4-1-27.9-1.2c-3.5-0.1-7,0.1-10.4,0.4
					c-3.7-2-7.7-4-12.8-5.6c8.5,1.2,18.2,1.7,27.2,2.5c9.9,0.9,19.7,1.8,29.4,2.5c-1.1,0.1-2.3,0.2-3.4,0.3
					C139,96.7,136.8,96.6,138,97.7z M158.3,77c1.7,0.7,3.5,1.5,5.3,2.2c-0.2,0-0.5,0-0.8,0c-2.3-0.3-4.6-0.6-7-0.9
					c0.4,0.2,0.9,0.4,1.3,0.6c-9-0.5-17.9-1.1-26.8-1.7c-12.8-2-26.6-3.4-40.6-3.9c4-0.8,7.9-1.8,11.4-2.8
					c17.8,2.2,34.8,5.1,53.4,5.9C155.9,76.5,157.1,76.8,158.3,77z M68.5,114.1C68.4,114.1,68.4,114.1,68.5,114.1
					c-0.7-0.5-1.5-1-2.6-1.7C65.9,112.4,67,113.1,68.5,114.1z M38,147.6l-0.4-0.3l5.4-7.7L38,147.6z"/>
			</g>
		</g>
		<g>
			<g>
				<path class="st2" d="M141,194.6c-0.2-0.8-1.4-1.8-1.8-2.6c0.6-1,1.5-1.5,1.8-2.3c0.5-2.3,0.6-4.9,1.1-7.2c0.1-1,0.2-1.8,0.3-2.8
					c1.7-3.3,2.3-6.4,1.9-9.8c0.1-0.5,1-1.8,1.1-2.8c0.3-0.5,0.9-1.3,0.7-1.8c-0.7-1,0-2.3,1.5-4.1c0.9-1.3,1.1-2.6,1.7-3.9
					c2.2-5.7,3.6-11.3,5.8-16.8c-1.2-9.9,24-43.5,4.9-38.6c-1.1,0.8-2.8,1.3-4.1,1.5c-20.1,8.5-18.4,7.2-25.7,25.3
					c-0.6,2.6-1.3,4.9-2.2,7.5c-0.4,1-0.2,2.1-0.9,3.3c-4.1,8.5-5.6,17-11.8,25.7c-0.6,0.2-0.6,0.5-0.9,1c-5.7,6.1-4.9,5.9-11.4,5.5
					c-1,0-2-0.5-2.9,0c-2.9,0.5-4.3-1.1-4.4-2.9c0-2.6,0.3-5.2,1.2-8c3.7-11.9,8.5-24.2,13.5-36.3c6.1-11.8-6.3-4.2-6-14.1
					c-0.1-1.6-0.4-3.4,0.3-4.9c1.1-3.1,1.5-5.9,2.6-8.8c0.8-2.1,0.9-3.6,0.2-4.4c2.2-3.6,4.2-6.9,6.5-10.8c3.5,1.6,7.6-0.1,12.9-0.8
					c3.5-0.7,7.4-5.3,8.3-8.4c4.4-10.8,8.4-16.7,14.6-27.5c3.9-6.9,9.2-14.1,13.9-21.3c1.3-1.8,2.6-2.3,4.4-2
					c2.1,0.3,3.6,0.6,5.7,0.9c2.5,0.8,2.6,2.4,1.6,4.7c-2,4.1-4.5,7.7-6,11.3c-2,4.1-4,7.7-6,11.6c-17.9,24.1-1.5,22.8,18.9,15.8
					c0.7-1.3,1.5-1.8,1.9-2.8c3.2-7.5,5.8-11.8,9.8-19.6c0.8-2.1,2.6-4.6,2.9-6.7c0.4-3.4,3.1-6.2,5-9.3c1.3-2,2.3-4.1,2.9-6.7
					c0.2-1.8,1.8-4.4,2.8-6.4c3.1-4.6,6.5-9.2,9.7-14.1c3.7,0.1,7.3,0.1,10.7,0.2c5.5,0.1,10.3,1.5,14.2,3.8
					c3.7,2.1,5.4,5.3,3.8,10.2c-1.7,3.1-2.3,6.2-4.7,9c-6.3,9.8-11.2,19.8-15.7,29.6c-5.5,11.3,8.3,7.6,15.3,6.2
					c1.3-0.2,2.9-0.5,3.3,1.1c-5.1,0.7-10.7,1.9-15.3,2.9c-2.7,0.5-4.6,1.2-6.8,2.2c-3.1,1.5-4.7,4.1-5.8,7.2c1.3,0,3.4,0.3,4.9,0.3
					c0.8,0,2.1-0.2,3-0.7c3.2-0.2,6.4-0.9,9.5-0.4c1.3,0.3,4.2,0.1,6.1-0.4c2.1-0.2,4-0.2,6.3-0.2c-0.6-1.3-1.3-2.4-1.7-3.7
					c-0.1-1.3,0.8-2.8,1.6-4.9c0.5,0,1.3,0,1.8,0c0.3-0.2,0.3-0.2,0.6-0.5c-0.7-1.1-1.9-2.1-2.3-3.1c3.5,1.3,6.1,3.7,6.8,7.4
					l0.1-0.5c-0.6,0.5-1.1,0.8-2.2,0.7c-2.3,4.1,0.8,4.2,4.2,4.2c-4,2.8-6.1,0.9-9,1.2c1.7,1.1,2.7,1.9,4.1,2.9
					c-1.9,0.5-4,0.2-5.3,3c1.3,0.3,2.8,0.3,4.9,0.6c-1.9,0.5-3.3,1.3-4.4,1.5c-1.1,0.2-2.4,0.5-3.6,2c1,0,2,0.5,3.3,0.8
					c-6.5,1.7-13,3.4-19.5,5.9c-4.3,1.2-9.2,2.5-13.8,3.9c-3.8,1-6.1,3.3-7.5,6.4c-2.6,4.6-3.9,9.3-5.2,13.9
					c-1.2,3.4-2.1,6.7-3.8,10.1c-2.5,5.7-3.4,11.4-5.6,16.8c-1.6,5.2-3.3,10.3-5.4,15.5c-0.1,0.5-0.9,1-1.5,1.8
					c-0.1,0.5-0.7,1.3-0.4,1.5c1.2,3.6-1.2,8-2.7,11.9c-0.1,0.8-0.4,1.5-0.5,2.1c0.4,3.6-2.1,7-3.8,10.3c-0.4,1.5-3,3.1-4.7,4.8
					c-1.3,0-2.6,0.2-3.5,0.5c-0.8,0-1.6,0-2.1,0.2c-3.7,3-7.6,2.2-11.3,5.3c-1.4,0.8-0.6-1.3-1.8-0.5c-0.9,0.8-1.5,1.5-1.7,1.5
					c-1,0-1.5-0.5-2.5-0.8c-0.6,0.5-1.7,1.5-2.3,2C142.1,197.2,141.8,196.9,141,194.6z M124,83.1c-3.2,0.7-4.1,1.8-5.8,5.1
					c1.3,0,2.8,0.6,4.4,0.6c1.5,0.3,1.7,1.1,2.1,2.4c-2.5,1-4.8,1-7.2,3.5c3.2-0.5,5.6-1,8.3-1.7c2-3.6,3.7-6.9,5.7-11.1
					C128.5,82.6,126.7,82.9,124,83.1z M155.7,76.3c-1.6,0.2-3,0.7-3.1,2.3c0.8,0,1.3,0.3,1.6,0c4.4-1.7,8-3.5,12.1-5
					c1.9-0.2,3.4-0.2,5.3-0.2c0-0.3,0.6-0.8,0.6-1c-2.1,0.2-4,1-5.9,1.2C162.7,74.6,159.2,75.3,155.7,76.3z M158.5,81.5
					c-1.6,0.2-3.2,0.7-4.9,1.5C155.2,83.6,157,83.3,158.5,81.5z M175.7,80.8c-2.6-0.3-5.6,0.4-9.1,1.4c-1.9,0.8-3.8,1.2-5.9,1.2
					c-1.8,0-3.5,0.5-5.2,1.7c6.6-0.2,13.2-1.1,21.3-3.1C176.4,81.6,176.1,81.3,175.7,80.8z M174.9,84.9c-1.8-0.3-3.2-1.6-6.7,1.2
					C171.2,85.6,172.6,86.7,174.9,84.9z"/>
			</g>
			<g>
				<path class="st2" d="M255.9,91.6c0,0,0,0,0.3-0.3c0.9-1,1.5-1.3,2.3-1.8c2.9-0.5,10-5,12.4-3.4c0.7,1,3.1,2.4,4.1,3.4
					c0.9,1.3,1,3.1-0.1,5.7c-1.9,3.3-4.1,6.4-6.7,10.5c-0.7,1.5-1.4,2.8-1.7,3.9c-1.3,2.3-2.7,5.4-4.3,7.7c-1.4,3.1,4.4-6.7,3.6-4.1
					c-0.1,0.8-0.7,1.5-1,2.1c-2.7,5.1-2.6,4.1-3.4,8.8c-0.3,2.6-2.8,15.8-2.8,18.1c0.1,1.8,1,2.9,1.7,3.9c1,0.5,2.2,1.6,3.7,2.1
					c1.2,1.1,2.6,0.6,4.2,0.3c22.6-7.4,15.1-10.4,29.1-23.4c2.7-3.3,6-6.4,7.7-10.5c0-0.3,0-0.3,1-1.5c1,2.6-2.3,6.2,1.3,7
					c-6.6,9.8-12.1,23.9-21.6,29c-3,3.3-22.5,18.6-33.6,14c-3.8,1.2-6.8-2.4-10.6-4c-2.5-1.1-4.9-3.2-6.9-5.8
					c-0.9-3.4-1.8-7-1.4-10.4c-0.3-1.6-0.1-3.4,0-4.7c1.1-3.1,1.3-9.1,2.6-11.1c0.4-1.3,1.1-2.6,1.3-4.1c0.6-0.3,0.2-1.6,2-1.8
					c0.3,0,0.6-1,0.9-1.3c1.5-1.8,2-3.3,3.5-5.1c0,0-6.1,5.4-2.4,0.2c2.7-5.1,8-10.8,10-14.4c0.1-0.5,0.7-1.3,0.7-1.3
					c1-1.5,1.9-2.6,1.5-4.4c-0.1-1,0.2-2.1,1.2-3.6C254.9,91.6,255.1,91.8,255.9,91.6z M283.2,63.7c-0.6,0.8-1.2,1.3-1.6,2.3
					c0,0.3-0.1,0.8-0.7,1.3c-0.9,0.8-1.8,1.8-3,3.1c-0.6,0.8-2.8,1.8-4.2,2c-0.5-0.3-1.3,0.2-1.9,0.8c-1.7,1-2.7,0.7-3.7,0.2
					c-0.7-0.5-1.3-0.5-2-0.5c-1,0-1.8,0-2.9-0.3c0.3-0.3,0.6-0.8,0.9-1c0.1-0.8,0.7-1.5,1.1-2.6c0.7-1.3,1.3-2.1,2.2-3.3
					c0.1-0.5,0.9-1,0.9-1.3c0.2-1.6,1.6-2.8,2.6-4.4c0.6-0.8,1.2-1.5,1.8-2.3c0.6-0.5,1.2-1,1.7-1c0.6-0.2,1.1-0.2,1.3,0
					c-0.1,0.5,0.5,0.5,1,0.3c0.6-0.2,0.8-0.5,1.1-0.2c1,0.5,2.3,0.8,3.3,1.1c1.7,0.8,2.9,2.1,3.7,3.9
					C284.1,62.4,283.8,63.2,283.2,63.7z"/>
			</g>
			<g>
				<path class="st2" d="M384.9,124.1c-0.5,6.5,1.9,4.2,11.7,2.8c3.2-0.5,8.1-1.7,13.3-6.3c2.6-2.3,5.2,0.6,6.3,1.9
					c-0.1,1-4.1,6.2-4.7,6.7c-11.7,6.3-17.5,6.2-25.7,7.1c-6.7,1.5-7.6,4.8-10.6,9.9l-1.3,2.1c-1.1,3.1-3.2,5.4-4.8,7.7
					c-0.6,0.5-1.2,1.3-1.7,1.5l-3,3.1c-1.3,1.8-3.1,3.8-5,5.1l-2.1,2l-2.9,2.3c-0.8,0.2-1.6,0.2-2.4,0c-0.7-0.5-1.7-1.3-2.4-1.6
					c-0.2-0.8-0.1-1.6,0-2.3c-0.3-2.3-0.8-4.4-3.1-4.7c-1-0.5-1.7-1.6-2.3-2.4c-0.9-1.6-1.6-2.1-2.8-2.9c-2.2-1.6-2.2-5.7,0.2-9.1
					c1.3-2.3,2.8-3.6,4.5-4.6c1.7-1.3,3.7-2.3,5.6-3c3.4-2,6.3-2,9.8-3.5c1.9-1,3.5-2.8,4.8-5.6c2.6-6.7,5.8-16.5,7.4-23.5l1-8.8
					c0.1-0.5,0.1-1-0.1-1.6c-0.1-1.3-1.4-1.8-2.3-0.8c-0.6,0.2-0.8,0.5-1.2,1.3c-2.2,2.8-4.3,5.6-6,8.7c-4.8,7.4-9.3,15.4-14.1,22.6
					c-3.5,5.4-6.7,10.3-9.7,15.9c-5,9.3-14.9,18.4-19.5,28.5c-1,1.8-1.7,3.6-3.4,4.6c-1.4,0.5-2.1,2.6-2.3,4.1
					c-0.2,1.8-0.7,3.9-1.4,5.4c-0.6,1-1.3,2.1-1.9,2.6c-1.8,1.8-2.4,3.1-3.4,4.4c-3.3,6.4-6.2,12.9-7.5,19.8c-0.6,3.1-1,6.2-2.1,9.3
					c-0.5,2.3-1.8,4.1-3.7,4.9c-1.4,0.8-2.6,1.8-3.6,3.8c-0.3,0.3-1.2,1.3-1.5,1.3c-0.8,0-1.3,1.8-1.9,2.6l-0.3,0
					c-4.3,0.7-6.5-2.4-7.6-7.4c-1-4.9-0.9-10.4-0.6-15.6c0.9-12.4,3-24.3,6-36.7c1.1-4.9,2.7-10.1,4-14.7c2-8,4.7-16,7.6-23.5
					c4.2-11.3,8.6-22.4,13.2-33.2c1.1-2.6,2.4-4.9,3.5-8c4-7.7,7.6-16,11.6-23.9c1.7-3.9,4.3-8.2,6.6-12.1c1.4-1,2.7-1,3.9,0.1
					l5.8,4l0.2,0.3c3.4,4.7,5.1,10.4,5,18.2c0.1,3.9-0.7,8.3-2.2,12.7c-2.3,6.2-4.9,12.9-7.9,19.3c-2,4.1-4.2,9.3-6.3,13.9
					c-5.8,14.4,2.8,12.7,5.1,8.4c1-2.1,5.5-7.2,6.6-9.8l10.6-17.5c1.7-3.3,3.3-5.6,5.6-8.2c2.1-2,4.2-4.6,6.5-6.6
					c1.7-1.5,4.2-2.8,6.1-2.8l4.4,0.1c2.4-0.5,4.3,1.6,6.2,3.5c1.2,0.8,2,2.9,2.1,5c0,2.1,0.3,4.4,0.1,6.2l0.2,7.5L384.9,124.1z
					 M352,144.1c-1.7,0.8-2.9,2.6-3.3,5.7c0.1,1.3,0.8,2.3,1.6,2.4c0.6-0.5,1.4-0.5,2-1c1.4-0.8,2.8-1.8,3.8-3.1
					c3.3-3.8,4.8-8,3.9-6.4C356.8,142.9,354.5,142.3,352,144.1z"/>
			</g>
			<g>
				<path class="st2" d="M414.2,202.8c-1,0-1,0-3.6,1.5c0,0,0.1-0.5,0.1-0.8c-0.5-0.3-0.5-0.3-0.7-0.8c-0.6,0.5-1.4,0.5-1.7,1.3
					c-1.4,1-2.8,1.3-4.4,1.7c-0.5,0.2-0.5,0.2-1.8-0.3c0.3-0.5,0.4-0.8,0.7-1.3c-0.8,0-1.4,0.5-2.1,0.5c-0.3,0.5-0.9,0.8-1.4,0.8
					c-2.2,1.3-3.2,0.7-4-1.4c-0.3-1.6-0.4-3.1-1.4-4.2c-1.3-2.1-1.3-4.7-1.5-7.5c0.1-1,0.6-2.8,1.2-4.1c1.2-3.4,3.1-6.2,5.5-9.3
					c4.9-5.9,9.9-11,15.4-15.3c11-8.9,9.7-11.5,7.4-19.3c-0.9-6-3-10.4-5.1-15.1c-0.1-1-0.8-1.8-1-2.9c-2-3.4-4.8-22.4-4.3-27
					c0.6-0.5,0.4-1,1-2.1c-0.1-1.6,0.6-3.1,1.8-4.6c0.4-0.8,1.3-2.3,0.7-3.6c0.9-1.3,1.4-3.1,2.3-4.4c0.7-1.3,1.3-2,2-3.6
					c0.6-0.8,1-1.5,1.8-2.3c1-1.5,1.9-3.1,2.9-4.6c1.3-2.1,3-3.6,4.3-5.4c0.3-0.5,0.6-0.5,1.1-0.8c0.8-0.5,1.1-0.8,1.8-1.8
					c0.9-1,1.5-1.5,2-1c1.7,0.8,3,1.6,4.4,3.2c0,0,0.3,0,0.5,0.3c2.2,1.1,5.3,10.7,5.2,14.1c-0.1,0.8-0.2,1.5,0.3,2.1
					c-0.2,1.6-0.4,3.1-1.1,4.6c-0.8,2.1-1.6,4.6-2.9,6.7c-0.6,1-1,1.8-2.1,2c-0.8,0.5-1.7,1.5-2.4,2.6c-0.3,0.8-1.5,1.5-1.4,2.8
					c0,0-0.1,0.5-0.4,0.8c-0.9,1.3-1.9,2.8-2.6,4.1c-1.3,2.6-1.9,7.2-1.3,9.3c0.4,1.3,1.5,2.6,2.2,3.4c3.1,2.9,4.8,12.8,7.4,15.7
					c1.2,1.1,0.9,3.9,1.8,5c1.7,5.7,10.9-1.1,17.9-2.8c4.2-2.8,8.5-5.6,12.8-8.6c3.1-2,6.3-4.3,9.1-6.6c2-1.5,3.8-3.3,5.6-5.1
					c1.5-1.3,2.9-2.8,4.4-4.3c0.4,1,0.6,1.8,0.8,2.6c0.3,1.6,0.4,3.1-0.8,4.7c-0.3,0.8-0.9,1.3-1,2.1c-0.7,1.8-1.7,3.3-2.9,4.9
					c-1.5,1.5-2.5,3.6-4,5.1c-1.4,1-2.6,2-3.8,3.1c-2,1.5-4,3-6,4.6c-0.3,0.3-0.9,0.8-1.2,1c-3.1,1.5-6,4.1-9.1,6.1
					c-0.9,0.8-2,1.5-3.1,2.3c-5.7,3.8-13.5,3.7-14.3,10.7c0.5,5.2,0.6,4.2-1.7,10.3c0.2,0.8-0.4,1.3-0.2,2.1c-0.6,0.8-0.4,1-0.4,1
					c-1.2,1.5-1,4.4-1.7,5.9c-0.3,0.5-0.9,1-1.5,1.3c-0.3,0.3-0.6,0.3-0.8,0.5c-1.2,1.5-2.7,3.1-3.7,4.9c-1.6,2.8-9.5,10-11.8,12
					c-0.9,1-1.5,1.8-2.4,2.6c-1.2,1.5-3.7,2.3-5.3,3c-0.3,0.3-0.6,0.3-0.6,0.5c-1.8,1.8-3.7,2.5-5.3,2.8c-0.6,0.2-0.6,0.5-1.1,0.8
					C410.7,206.7,412.4,204.9,414.2,202.8z M406.5,181.2c-1.6,0.5-3.4,2-4.4,3.8c-1,1.5-1.9,2.6-3,3.3c-1.2,1-2.3,2-3,3.3
					c-0.4,1.5-0.6,2.8-1.2,4.1c-0.7,1.5-0.6,2.6,0.1,3.4c0.9,1.3,1.8,2.4,2.7,3.7c0.7,0.5,1.7,0.8,2.9-0.2c1.1-0.8,2-1.5,3.4-2.5
					c1.2-1,2.4-2.3,3.5-3.3c2.6-1.8,4.6-3.8,6.5-6.9c0.6-0.5,0.9-1.3,1.3-1.8c1.5-2,2.9-4.4,3.9-6.7c1.6-2.3,1.6-4.9,2.9-7.5
					c0.3,0,0.3-0.5,0.3-0.8c0.9-8.3-9.8,3.5-13.3,6.5C408.4,180.5,407.5,181,406.5,181.2z"/>
			</g>
			<g>
				<path class="st2" d="M569,118.1c-0.2,1.6-1,1.5-0.8,2.8c0.1,1-3.6,8.5-4.2,9.5c-2,4.1-4.3,8.2-6.4,12.3
					c-2.9,4.6-5.7,8.7-8.6,13.1c-1.3,1.8-15.3,17.1-16.7,18.1c-3.7,2.3-10.2,8.9-13.6,10.9c-2.2,1.3-10.4,4-12.3,4.2
					c-3.4,0.2-7.1,0.4-10.2-0.4c-5.4-0.9-12.6-9-14.6-14.2c-1-2.3-2.4-4.4-2.9-7c-0.7-3.4-0.8-8.8-0.7-12.7
					c2.5-21.7,5.4-24.8,14.1-45.7c0.7-1.8,1.2-3.3,1.9-5.2c0.5-1.8,1.5-3.6,2.2-5.2c1.1-2.8,2.2-5.7,3.3-8.2
					c2-5.7,9.9-15.4,3.7-16.8c-1.8-0.3-3.4-0.1-4.8-1.4c-1.5-1.1-2.9-1.9-4.4-2.9c-0.5-0.5-1.2-1.1-1.3-2.4c0.6-0.2,1.1-0.5,1.4-0.5
					c3.8-0.7,7.2-1.4,11-2.2c2.4-0.5,5.1-0.7,7.7-0.9c1.1-0.2,2.2-0.7,2.9-2c1-2,2.5-3.8,3.3-6.2c3.2-4.9,5.6-10,9-14.6
					c3.1-4.1,6.1-7.7,9.9-10.7c0.6-0.8,1.5-1.5,2.1-2c1.1-0.8,2.2-1.3,3.5-1c1.5,0.5,3.2-0.2,5-0.2c0.3,0,0.3,0,0.6-0.3
					c3.8-0.7,4.9,0.9,5.6,3.7c1,2.6,1.2,5.2,0.9,8.3c-0.2,1.6-0.1,2.9,0.1,4.2c0.1,1,0,2.3-0.4,3.6c-0.4,1.3-0.8,2.6-1.2,4.1
					c-0.8,2.1-1.5,4.1-2.3,6.2c-0.1,0.8-0.1,1.3-0.5,2.1c0.7,0.5,1.5,0.5,2.6,0.6c3.2-0.2,6.6-0.4,9.8-0.6c4.4,0.1,9.2,0.1,13.6,0.2
					c1.6,0,3.1,0.6,4.9,0.9c-0.6,0.8-0.9,1.3-1.2,1.5c-0.6,0.5-1.4,1-2,1.3c-1.9,0.7-4.1,1.7-6.1,2.5c0,0.3-0.3,0.3-0.3,0.3
					c-2.9,0.2-6.2,1.5-9.3,1.2c-1.8,0-3.7,0.2-5.6,0.7c-1.1,0.5-2.4,0.5-3.5,0.7c-2.1,0.2-4,0.5-6.1,0.7c-1.1,0.2-1.7,1-2.3,2
					c-0.3,0.2-0.3,0.5-0.6,0.8c-4.1,8.7-9.3,17-13.6,25.5c-0.6,1-1.3,2-1.6,2.8c-1.6,2.6-2.9,4.9-4,7.7c-1,2.3-2.6,4.6-4.2,6.7
					c-1.3,1.8-1.3,4.1-2.8,5.9c-3.6,6.4-9.2,26-9.8,35.9c-0.2,4.1,0.4,8,1.3,11.9c0.4,1.3,1.3,2.1,2,3.1c0.3,0,0.5,0.3,1,0.3
					c2.4,0,7,0.4,9.6-1.2c1.7-1,10.2-7.1,12-8.4c4.4-3.8,14.3-13.3,17.5-18.4c2.9-4.4,4.8-10,7.6-14.1c1.3-2.6,4.6-8.2,6.2-11
					C567.4,118.3,569.4,117.3,569,118.1z M532.8,79.2c3.3-6.4,4.7-11.6-4.5-6.3c-3.8,8.5-5.6,14.4-8.8,22.4c-8.2,21.4,2,5.5,6.7-4
					C528.6,86.4,529.9,83.8,532.8,79.2z M544.3,49.5c0.4-1,0.8-2.3,1.2-3.6c0.5-2.1,1.3-4.1,1.8-6.2c0.5-2.3,0.5-4.7,0.5-7
					c-0.1-1-0.9-1.3-1.5-0.8c-1.1,0.8-2,1.3-2.6,2.6c-1.3,2-2.6,4.4-3.4,6.7c-0.3,0.8-1,1.5-1.3,2.3c-0.6,1-1.3,2-2,3.3
					c-0.8,2.6-1.7,5.4-2.8,8.3c-1.8,6.7,5.5,7.1,7.6,2.4C542.6,54.9,543.4,52.4,544.3,49.5z"/>
			</g>
			<g>
				<path class="st2" d="M592.7,119.2c-0.1,0.5-0.6,1-1.2,1.3c-0.3,0.3-0.8,0.5-0.9,1.3c-0.4,1-0.7,1.3-1.5,1.5
					c-0.6,0.2-0.6,0.5-1,2.1c0.5,0,0.8,0,1,0.3c0,0,0,0,0,0.3c-0.5,0-1,0-1.8,0c0.3-0.8,0.4-1.5,0.5-2.1c-0.3,0-0.5,0-0.5,0
					c-0.5,1.8-0.9,3.6-1.4,5.4c0.5,0.3,0.7,0.5,1,0.5c0.1,1.8-0.1,3.4-0.3,5.2c-0.2,1.8,0.1,3.4,0.5,4.7c0.7,1.1,2.1,6.8,2.8,7.8
					c3.3,3.7,7.2,8.4,11.3,8.7c1.3,0.3,9-0.9,10.4-1.1c6.5-1.7,12.9-5,19.1-9.3c4.8-3.3,9.5-7.1,14.3-10.7c0.3-0.3,0.6-0.5,0.9-0.8
					c1.8-1.8,3.5-3.3,5.3-5.1c3.2-2.8,6.1-5.6,8.9-8.9c0.9-1.3,1.9-2.6,3.5-3.1c-0.8,2.3-1.5,4.4-2.8,6.4c-0.3,0.8-1,1.5-1.5,2
					c-1.8,1.8-3.3,3.3-4.5,5.4c-0.9,1-2.1,2-3,3.1c-0.3,0.3-0.6,0.8-1.2,1.5c0.8-0.2,1.4-0.5,2.2-0.7c-0.4,1.5-1.8,1.8-2.2,3.1
					c0.2,0.3,0.2,0.5,0.7,0.8c-0.9,1.3-1.8,2-3,3.1c-1.7,1.3-3.5,2.8-4.9,4.3c-2.6,2.6-5.5,4.6-8.4,6.6c-1.4,1-2.6,2-4,2.8
					c-1.1,0.8-2.2,1.3-3.4,2c-1.7,0.8-3.3,1.5-5,2.5c-2.8,1.5-5.8,2.8-8.7,3.2c-0.8,0.2-1.6,0.5-2.4,0.7c-3.3,1-6.5,1.5-9.6,1.7
					c-3.7,0.5-18.8-2.6-22.1-4c-8.7-3.8-10.1-8.2-13.8-11.9c-1.4-1.3-2.5-3.4-3.1-5.5c-0.9-3.4-0.8-7-0.6-10.9
					c0.9-8,3.9-15.8,8.1-22.9c1-1.5,1-1.5,1-3.9c-1.4,0.8-2.2,1.3-2.9,2.8c-1,2.3-2.3,4.4-3.9,6.7c0.3-2.3,1.5-3.9,2.5-5.7
					c2.6-4.6,5.5-9,8.8-13.1c3.4-4.4,7-8.2,11-11.8c4.1-3.8,8.4-7.1,12.9-9.7c1.1-0.5,1.9-0.8,2.8-1.3c1.4-0.5,2.7-0.7,3.3,0.6
					c0.7,0.8,1.8,0.5,2.2,1.1c0.7,0.5,0.9,1.6,1.3,2.1c2.5,1.3,12.1,4.1,14.3,5.7c0.7,0.5,1.1,1.6,1.5,2.6c1,2.4,1.8,5,3.5,6.5
					c0.5,0.5,0.6,1.6,0.8,2.3c0.2,3.1,0.1,6-1.1,9.3c-0.9,3.6-2.9,6.9-5.1,10c-1.3,1.8-2.5,3.3-3.5,5.4c-0.7,1.8-1.9,3.3-3.2,5.1
					c-1.3,2.1-3.3,3.3-5.2,3.8c-1.7,0.8-3.5,1-5.1,0.7c-0.8-0.3-1.6,0-2-1.1c0-0.3-0.2-0.3-0.2-0.3c-2.1,0.2-3.2-2.1-4.6-2.9
					c-0.2-0.3-0.4-1-0.4-1.3c0.6-1,0.2-1.5,0-2.3c-0.8-2.1-1.6-4.4-2.7-6.5c-0.2-0.8-0.9-1.1-1.8-0.3
					C594.1,116.6,592.9,117.7,592.7,119.2z M565.3,142.1c0.2,0.8,0.4,1.3,0.5,2.1c-0.1,0.8,0.6,1.3,0,2.3c-0.2-0.3-0.5-0.3-0.5-0.5
					c-1-2.6-1.2-6-1.3-9.4c-0.2-0.3,0.1-0.5,0.1-0.8c0.4-3.9,0.8-7.5,2.3-11.4c0.3-0.8,0.7-1.5,0.8-2.3c0.1-0.5,0.1-0.8,0.2-1.8
					c-1,1.5-1.6,2.6-2,3.6c-0.4,1.3-0.8,2.3-1.2,3.6c-1.8,6.7-2.3,12.9,0,18.4c0.4,1,1.1,1.8,1.8,2.9c0.5,0.5,1,0.8,1.7,1.1
					c0,0.3,0.3,0,0.8,0c-0.6-1.3-1.3-2.4-1.7-3.7c-0.6-1.6-0.4-3.1-1.1-4.4C565.6,141.9,565.3,142.1,565.3,142.1z M567.1,125.6
					c-1.8,4.1-2,8-1.9,11.9c0,0.3,0.2,0.3,0.5,0.5c0.6-2.8,1.1-5.4,1.7-8c0.5-1.8,0.9-3.6,0.3-5.2
					C567.5,125.1,567.2,125.3,567.1,125.6z M585,132.3c0,0.3,0,0.3-0.1,0.5C584.9,132.6,584.9,132.6,585,132.3z M602.4,105.4
					c-0.6,0.8-1.5,1.8-2.2,2.8c-1.3,1.8-1.1,3.1,0.1,3.9c0.7,0.5,1.7,1.1,2.2,1.8c1.4,1.8,3.5,1.6,5.6,1.4c1.9-0.5,3.4-2.3,4.7-4.1
					c2.3-4.4,3.5-5.1,5.5-9.5c5.3-9.8-3.3-7.6-7.6-4.5C607.6,99.2,605.1,102.6,602.4,105.4z"/>
			</g>
			<g>
				<path class="st2" d="M691.5,129c1.5-3.9,12.7-22.1,14.9-25.2c1.8-2.3,3.7-4.6,5.3-7.2c1.8-2,3.6-4.3,4.9-6.4
					c1.2-1.8,2.9-2.8,4.5-3c1.8,0,3.4-0.2,5-0.2c3.1,0,4.7,2.4,5.9,5.8c0,0.3-0.1,0.5-0.1,1c0.1,3.4,0.5,7,0.6,10.6
					c0.1,3.4-0.5,7-0.9,10.3c-0.3,2.3-0.3,4.7-0.8,7c1.2,0.8,0.8,1.8,1.1,1.6c0.6-0.5,2.3,0.3,2.9-0.2c0.3-0.5,0.9-0.8,1.2-1.3
					c1.1-0.8,2.3-1.5,3.5-2.8c0.9-1.3,1.7-1.3,2.6,0c-0.1,0.8-0.4,1.5-1.3,2c-0.3,0.3-0.6,0.8-0.9,1.3c-0.3,0.8-1,1.5-1.8,1.8
					c-0.3,0.3-0.6,0.5-0.9,0.8c-0.3,0.3-0.8,0.5-0.9,0.8c-0.3,0.3-0.6,0.2-0.8,0.5c-1.2,1-2,1.3-3,1.3c-0.3,0-1.3,0.2-2.5,1
					c-0.8,0.5-1.6,0.5-2.1,0c-1.7-1.1-3.5-1.3-5.3-2.2c-3.1-0.8-5.1-3.7-6-7.3c-1-4.7-0.5-9.9,0.9-14.8c0.8-2.3,1-4.4,1.5-6.5
					c0.4-1.5,0.9-3.1,1.3-4.6c0.6-1,0.7-1.8,0.6-2.8c-0.3,0-0.8-0.3-0.8,0.3c-0.3,0.2-0.9,0.8-1.2,1.3c-1.3,2.1-2.8,4.1-4.4,6.4
					c-0.9,1.3-1.6,2.8-2.1,4.6c0.1,1-0.7,1.8-1.1,2.6c-2.8,4.4-5.4,8.5-7.5,13.4c-1.7,3.6-3.9,6.7-5.9,10.3
					c-3,5.4-6.4,10.3-8.9,15.9c-0.7,1.8-2,3.9-3,5.9c-0.7,1.5-8.6,13.9-10.4,15.1c-0.1,0.5-0.9,0.8-1.5,1.3c-3.6,4.4-7.3,4-11.3,2.9
					c-0.6,0.5-1,0-1.5-0.5c-4.1-1.1-5.7-5-6.2-10.2c-0.3-4.4,0.2-9.1,0.7-13.5c1-6.7,2-13.5,3.3-20.2c2.2-7.5,1.1-7,3.9-13.9
					c3-10.1,1.8-8.5,6.6-18.6c0.5-1.8,1.7-3.1,2.4-4.9c2.4-4.6,4.4-8.7,7-12.8c1.4-3.3,2.5-3.9,5.1-3.3c1.8,0,4.1,0.6,6.4,1.1
					c1.5,0.3,3.1,0.8,4.9,2.7c1.4,3.4,3.8,5.8,6.1,8.9c1.9,4.2,2.1,7.3-0.1,12.2c-1.9,5.2-2,1.3-3.9,6.7
					c-4.6,10.8-11.9,19.3-15.9,29.1C676.5,145.4,689.9,133.4,691.5,129z"/>
			</g>
		</g>
	</g>
</g>
</svg>
