<?xml version="1.0" encoding="utf-8"?>
<!-- Generator: Adobe Illustrator 22.1.0, SVG Export Plug-In . SVG Version: 6.00 Build 0)  -->
<svg version="1.1" id="Слой_1" xmlns="http://www.w3.org/2000/svg" xmlns:xlink="http://www.w3.org/1999/xlink" x="0px" y="0px"
	 viewBox="0 0 838.7 235.5" style="enable-background:new 0 0 838.7 235.5;" xml:space="preserve">
<style type="text/css">
	.st0{display:none;}
	.st1{fill:#FFD82E;}
</style>
<g id="Background" class="st0">
</g>
<g id="Object">
	<g>
		<g>
			<g>
				<path class="st1" d="M802.5,83.9c-0.3-0.2-0.6-0.3-1-0.5c-0.5,0.1-1,0.1-1.4,0.2c0.6,0.2,1.1,0.3,1.7,0.5
					C802.1,84,802.3,84,802.5,83.9z"/>
			</g>
			<g>
				<path class="st1" d="M826.9,89.7c1.3-0.4,2.6-0.8,3.6-1.1c-0.1-0.1-0.5-0.2-1.1-0.5c-2.7-0.1-4.4,0.4-6.3,0.9
					C822.9,89.8,824.3,90.5,826.9,89.7z"/>
			</g>
			<g>
				<path class="st1" d="M830.7,88.6c0,0,0,0.1,0.3,0.1c0.3-0.2,0.7-0.4,1-0.6c0,0-0.6,0.2-1.5,0.5
					C830.7,88.7,830.7,88.6,830.7,88.6z"/>
			</g>
			<g>
				<path class="st1" d="M333.8,75.9c-0.1-0.3-1.1-0.6-2.3-0.6c-35.3,1.3-70.6,2.3-106.1,3c-1.1,0-2.1,0.4-2,0.7
					c0,0.4,1,0.7,2.2,0.7c35.4-0.6,70.9-1.5,106.2-2.9C332.9,76.8,333.7,76.4,333.8,75.9z"/>
			</g>
			<g>
				<path class="st1" d="M64.3,116.2c-0.8,0.2-0.8,0.7-0.1,1c0.8,0.3,2.2,0.2,2.9,0c0.9-0.3,0.9-0.7,0.1-1
					C66.5,116,65.1,115.9,64.3,116.2z"/>
			</g>
			<g>
				<path class="st1" d="M41.3,134.4c-0.1,0.7,1.7,1.4,3.9,1.4c45,3,90.6,5,136.4,6.4c15.1,3.3,30.1,6.6,45.5,9.8
					c-1.9,0.1-3.8,0.1-5.8,0.1c-49.8,0-92-9.2-140.2-11.1c-1.2-0.1-2.2,0.2-2.4,0.6c-0.1,0.4,0.7,0.8,1.9,0.8
					c23.5,1.2,45,4.4,68.3,6.6c19.4,1.9,37.7,3.6,55.7,6c-36.7-0.9-71.9-4.9-108.3-6.7c-1.6-0.2-3.2,0-4.2,0.4
					c-0.1-0.2-0.4-0.4-0.9-0.5c-4.6-1-9.5-1.8-14.6-2.4c-1-0.2-2.2,0-2.7,0.4c-0.5,0.3,0.1,0.7,1.2,0.9c5,0.6,9.7,1.2,13.9,2.3
					c0.8,0.2,1.6,0.2,2.3,0c-0.3,0.7,0.6,1.2,2.4,1.5c35.2,5.3,73,7.5,110.3,10.3c0.3,0.5,0.8,1,1.6,1.5c2.5,1.6,7.7,2.4,13.1,2.1
					l4.1-0.4c16.4-1,32.7-1.7,49-2.7c3.3,0.8,7.2,1.3,11.4,1.4c14,2,28.2,3.9,42.6,5.3c-0.9,0.4-1.4,0.9-1.4,1.5
					c0.3,1.4,3.6,2.5,7.5,2.4c2,0.1,3.9,0.1,5.9,0.1c-5.6,0.4-11.3,0.7-16.9,1.1c-0.9,0-1.6,0.1-2.3,0.2c-6.2,0.1-12.4,0-18.8-0.1
					c-55.6-1.3-107.8-6.5-159.6-12.5c-0.8-0.3-2.1-0.2-2.9,0.1c-0.5,0.4-0.4,0.8,0.5,1c32.6,6.9,60.9,16,97.8,20.5
					c44,5.5,87.4,10,132.4,13.5c47.1,0,90.7,3.3,138.7,5.8c64.9,3.3,126.2,3.9,189.7,4.2c23.8,1.1,45.6-4.6,48.7-12.7
					c1.8-4.9-3.6-9.5-13.4-12.7c1.9,0,3.9-0.1,5.8-0.1l9.2-1c8.7-0.9,16.1-2.9,20.8-5.7l6.4-3.4c8.5-6.5,22.4-11.9,29.4-18.7
					l-1.6-2.5l1.7-0.7c5.4-1.9,9.1-4.3,10.4-6.9l-0.5-3.1c-1.2-3.6-3.9-6.9-8.3-10c0.2-1.3-0.4-2.6-1.5-3.8
					c3.8-3.1,5.6-6.4,2.6-10.1c2.3-0.9,1.9-2.2-0.8-3c-0.9-0.3-2.1-0.4-3.2-0.5l0,0c1.3-0.8,1.6-1,3.3-1.9c2.2-0.3,3.5-0.5,3.5-0.5
					c5.9-0.6,5.9-0.6,11.1-1.1c4.5-1.1,7.2-2.6,7.2-2.6c5-5.5,5-5.5,4.2-7.9c-0.3-0.3-0.7-0.5-1-0.7c4-0.8,4.2-0.9,5.3-1.1
					c1.1-0.4,1.9-0.9,1.9-0.9c0.1-1.2,0.1-1.2,0.8-1.7c0.2-0.5,0.2-1,0.2-1c-2.2-1.4-2.2-1.4-2.3-1.8c-0.5-0.4-1.2-0.7-1.2-0.7
					c-2.5-0.5-3.6-0.6-4-0.7c-5.5,3.3-5.5,3.3-5.5,3.3c-1.2-1.1-1.2-1.1-1.2-1.1c-1.3,1.5-1.3,1.5-1.3,1.5c0.7-1.4,0.7-1.4,0.7-1.4
					c-2.8,0.9-2.8,0.9-2.8,0.9c3.2-1.2,3.2-1.2,3.2-1.2c-6.7,0.6-6.7,0.6-9.3,0.5c-2.8,0.2-5.1-0.2-5.4-0.2c0.2-0.4,0.2-0.7,0.2-0.7
					c-7.1,0.5-7.1,0.5-14,1.1c-0.6,0.3-1.1,0.6-1.6,0.9c-0.6-0.4-1.9-0.6-3.3-0.5c-1.2,0-2.4,0.1-3.6,0.2c-0.3-0.1-0.6-0.1-0.8-0.2
					c0-0.1,0-0.1,0-0.1c-1.3-0.3-2.1-0.5-3.1-0.7c-0.6-0.2-0.6-0.2-0.6-0.2l0,0c-2.1-0.4-5.1-1.1-13.2-2.8c-2.1,0.2-4.1,0.4-6,0.7
					c0.7-0.2,1.2-0.4,1.8-0.6c1.1-0.5,0.1-1.7,0.7-1.8c10.5-1.8,21.6-2.9,32.9-3.8c1,0.2,1.9,0.5,2.7,0.9c0.5-0.1,0.9-0.1,1.4-0.2
					c0.4,0.1,0.9,0.3,1.3,0.4c-0.6,0.1-1.1,0.3-1.7,0.4c0.3,0.2,0.6,0.4,0.8,0.6c-0.6-0.2-1.1-0.3-1.6-0.5c-6.3,1.4-12.6,2.7-19.1,4
					c-1.8,0.3-2.6,1.1-1.8,1.7c0.9,0.6,3.1,0.9,4.9,0.6c9-1.2,18.5-2,27.8-3c1.9,0.2,4,0.4,6.2,0.3c8.1-0.2,14.1-2.6,13.5-5.3
					c0.5-1.9,2.2-4,0.2-5.6c-3.8-3-10.5-4.7-18.2-5.4l2.2-0.6c15-3.6,18.7-10.6,8-15.5c-10.4-5.1-31-6.4-46-2.8
					c0.5-0.5,1.2-1,1.7-1.5c-4.8,0.1-9.1,0.7-13.5,1.4c3-0.8,6-1.6,8.9-2.4c-15.1,2.1-28.8,4.9-40,9.1c-1.3,0.5-3.3,0.7-5,1
					c-4.1,0.2-7.6,0.9-9.9,1.9c-18.1,1.1-35.3,3.3-49.4,7.3c-6.2,0.1-12.2,0.7-17.2,2.1c-0.1,0-0.2,0-0.3,0c1.3-0.7,2.5-1.3,3.8-1.9
					c-4.7,0.5-7.2,2-11.4,2.7c0.5-0.9,1.1-1.7,1.6-2.6c-22.9,1.6-47.7,0.9-68.9,4.6c-0.8,0-1.6,0.1-2.4,0.2
					c-9.1-1.7-18.4-3.5-29.2-3.7c3.6-0.3,7.2-0.5,10.9-0.8c-7.9-1.1-15.7-1.8-24.1-1.7c-22.8,0.2-48.3,4.1-60.4,10.8
					c-44.2-0.8-88.4-1.5-132.5-3.1c-2.3-0.1-4.3,0.4-4.7,1.2c-0.3,0.8,1.2,1.5,3.5,1.6c31.7,2.6,63.8,4,95.9,5.2
					c-26.9,1.3-53.9,2.5-81.4,2.8c-3.5-0.1-7.1-0.2-10.6-0.3s-6.9,0.1-10.4,0.4c-35.1,0.1-68.5,0.5-104.4-1.4
					c-30.7-1.6-57.5-3.3-88-5.7C99.3,76.4,60.3,73,17.9,73c-5.6-0.2-10.8,1.2-11.5,3.1C5.8,78,9.9,79.8,15.5,80
					c88.4,6,175.1,13.2,267.4,12.3c10-0.1,19.8-0.2,29.5-0.3c-0.1,0.3-0.2,0.5-0.2,0.8c0,1,0.9,2,2.5,2.8
					c-11.1,0.2-22.2,0.6-33.4,1.2c-31.2-2.2-62.3-4.4-95.5-3.3c-22.8,0.8-43.4,3.1-64.5,5.2C94.6,97.5,68,95.9,41,94.9
					c-1.1-0.2-2.2,0-2.6,0.4s0.2,0.8,1.3,0.9c18.5,2.4,37.5,4.2,56.7,5.8c-3,1.2-4.8,2.8-4.6,4.5c0.3,1.8,2.6,3.4,6.2,4.5
					c-4.3,0-8.7,0-13,0.1c-2.7,0-4.8,0.7-4.7,1.6s2.2,1.6,4.8,1.6c17.8-0.1,35.5-0.3,53.2-0.4c21.2,1,42.4,1.8,63.7,2.5
					c-3,1.1-5.2,2.6-6.2,4.2l0,0c-3.3,0-6.6-0.1-9.9-0.1c-60.1-4.9-121.7-7.7-183.8-6.7c-1.2,0-2.2,0.3-2.2,0.7c0,0.4,0.9,0.7,2,0.7
					c18.8-0.3,37.5-0.2,56.1,0.1c-0.1,0-0.1,0-0.1,0c-0.8,0.2-0.9,0.7-0.1,1c0.7,0.2,2.2,0.2,2.9,0c0.9-0.3,0.8-0.7,0.1-1
					c34.7,0.7,69.2,2.4,103.2,4.9c-31.6-0.4-63.2-0.7-94.8,0.1c-3.5-0.5-6.9-1-10.4-1.5c-1-0.1-2.2,0.1-2.6,0.5
					c-0.3,0.3,0.4,0.7,1.4,0.8s1.9,0.3,2.9,0.4c-6,0.2-10.6,1.9-10.5,4c0.4,2.1,5.5,3.8,11.7,3.7c16.6,0.4,33.1,0.6,49.7,0.7
					c1.8,0.1,3.6,0.3,5.4,0.4c1.8,0.3,3.6,0.7,5.4,1c-25.7,0.9-51.4,1.9-77,3C43,133.3,41.1,133.9,41.3,134.4z M809.6,100.2
					c0.7-0.5,1.2-0.7,1.8-0.9C809.6,100.2,809.6,100.2,809.6,100.2z M698.4,96.6c-1.1-0.1-2.3-0.2-3.4-0.3
					c9.7-0.7,19.5-1.6,29.4-2.5c9-0.8,18.7-1.3,27.2-2.5c-5.1,1.6-9.1,3.6-12.8,5.6c-3.4-0.3-6.9-0.5-10.4-0.4
					c-9.5,0.2-18.8,0.6-27.9,1.2C701.7,96.6,699.5,96.7,698.4,96.6z M684,76.4c18.6-0.8,35.6-3.7,53.4-5.9c3.5,1,7.4,2,11.4,2.8
					c-14,0.5-27.8,1.9-40.6,3.9c-8.9,0.6-17.8,1.2-26.8,1.7c0.4-0.2,0.9-0.4,1.3-0.6c-2.4,0.3-4.7,0.6-7,0.9c-0.3,0-0.6,0-0.8,0
					c1.8-0.7,3.6-1.5,5.3-2.2C681.4,76.8,682.6,76.5,684,76.4z M772.6,112.4c-1.1,0.7-1.9,1.2-2.6,1.7c0.1,0,0.1,0,0,0
					C771.5,113.1,772.6,112.4,772.6,112.4z M795.5,139.6l5.4,7.7l-0.4,0.3L795.5,139.6z"/>
			</g>
		</g>
	</g>
</g>
</svg>
